<?xml version="1.0" encoding="UTF-8"?>
<svg width="16px" height="16px" viewBox="0 0 16 16" version="1.1" xmlns="http://www.w3.org/2000/svg" xmlns:xlink="http://www.w3.org/1999/xlink">
    <title>Icons / UI / Help</title>
    <desc>Created with Sketch.</desc>
    <g id="Page-1" stroke="none" stroke-width="1" fill="none" fill-rule="evenodd">
        <g id="Group" fill="#000000" fill-rule="nonzero">
            <path d="M8,6.05576196e-16 C3.58181818,6.05576196e-16 6.05576196e-16,3.58181818 6.05576196e-16,8.00036363 C6.05576196e-16,12.4181818 3.58181818,16 8,16 C12.4181818,16 16,12.4181818 16,8.00036363 C16,3.58181818 12.4181818,6.05576196e-16 8,6.05576196e-16 Z M7.81200001,10.1819992 C7.51054545,10.1819992 7.26654546,9.93763557 7.26654546,9.63654466 L7.26654546,8.7350901 C7.26654546,7.71181737 8.00400001,7.26745374 8.54254545,6.94345374 C9.08363636,6.61727193 9.39236363,6.40854466 9.44509092,5.89981737 C9.488,5.49072646 9.38363636,5.14599919 9.13490909,4.87581738 C8.83490909,4.5499992 8.33272727,4.34127193 7.82327273,4.36418102 C6.90290908,4.38272647 6.18181817,5.0819992 6.18181817,5.95618102 C6.18181817,6.25727192 5.93781819,6.50163556 5.63636363,6.50163556 C5.33490909,6.50163556 5.09090908,6.25727192 5.09090908,5.95618102 C5.09090908,4.48236283 6.28145455,3.30381738 7.80109091,3.27327193 C8.63199999,3.25763555 9.42472727,3.57945374 9.93781818,4.13727193 C10.4007273,4.64054465 10.6058182,5.28890828 10.5301818,6.01254466 C10.4185455,7.08709011 9.65963636,7.54418102 9.10545454,7.87763556 C8.55127272,8.21145374 8.35745455,8.36163556 8.35745455,8.7350901 L8.35745455,9.63654466 C8.35745455,9.93763557 8.11345455,10.1819992 7.81200001,10.1819992 Z M6.90909091,11.8181818 C6.90909091,11.3160606 7.31606061,10.9090909 7.81818181,10.9090909 C8.32030301,10.9090909 8.72727273,11.3160606 8.72727273,11.8181818 C8.72727273,12.320303 8.32030301,12.7272727 7.81818181,12.7272727 C7.31606061,12.7272727 6.90909091,12.320303 6.90909091,11.8181818 Z" id="Shape"></path>
        </g>
    </g>
</svg>