<?xml version="1.0" encoding="UTF-8"?>
<svg width="16px" height="14px" viewBox="0 0 16 14" version="1.1" xmlns="http://www.w3.org/2000/svg" xmlns:xlink="http://www.w3.org/1999/xlink">
    <title>Icons / UI / Import</title>
    <desc>Created with Sketch.</desc>
    <g id="Page-1" stroke="none" stroke-width="1" fill="none" fill-rule="evenodd">
        <g id="Import" fill="#000000" fill-rule="nonzero">
            <path d="M4.5,5 C4.0704206,5 3.8408316,4.49403914 4.1237117,4.1707477 L7.62371165,0.1707477 C7.8229173,-0.0569159 8.1770827,-0.0569159 8.37628835,0.1707477 L11.8762884,4.1707477 C12.1591684,4.49403914 11.9295794,5 11.5,5 L10,5 L10,10.5 C10,10.7761424 9.77614237,11 9.5,11 L6.5,11 C6.22385763,11 6,10.7761424 6,10.5 L6,5 L4.5,5 Z M8.00000001,1 L5.60188411,3.7407039 L6.50000001,3.7407039 C6.77614238,3.7407039 7.00000001,3.96456153 7.00000001,4.2407039 L7.00000001,9.7407039 L9.00000001,9.7407039 L9.00000001,4.2407039 C9.00000001,3.96456153 9.22385764,3.7407039 9.50000001,3.7407039 L10.3981159,3.7407039 L8.00000001,1 Z M12.5,1 C12.2238576,1 12,0.77614237 12,0.5 C12,0.22385763 12.2238576,0 12.5,0 L14.5,0 C15.3281424,0 16,0.67185763 16,1.5 L16,12.5 C16,13.3281424 15.3281424,14 14.5,14 L1.5,14 C0.671857625,14 0,13.3281424 0,12.5 L0,1.5 C0,0.67185763 0.671857625,0 1.5,0 L3.5,0 C3.77614237,0 4,0.22385763 4,0.5 C4,0.77614237 3.77614237,1 3.5,1 L1.5,1 C1.22414237,1 1,1.22414237 1,1.5 L1,12.5 C1,12.7758576 1.22414237,13 1.5,13 L14.5,13 C14.7758576,13 15,12.7758576 15,12.5 L15,1.5 C15,1.22414237 14.7758576,1 14.5,1 L12.5,1 Z" id="Combined-Shape"></path>
        </g>
    </g>
</svg>