<?xml version="1.0" encoding="UTF-8"?>
<svg width="2453px" height="846px" viewBox="0 0 2453 846" version="1.1" xmlns="http://www.w3.org/2000/svg" xmlns:xlink="http://www.w3.org/1999/xlink">
    <title>GristLogo2</title>
    <defs>
        <path d="M925.226562,660 L925.226562,230.507812 L792.21875,230.507812 L792.21875,660 L925.226562,660 Z M1133.52734,660 L1133.52734,555.703125 C1133.52734,505.898438 1139.67969,471.914062 1151.98438,453.75 C1160.57812,440.859375 1172.6875,434.414062 1188.3125,434.414062 C1196.51562,434.414062 1207.64844,437.34375 1221.71094,443.203125 L1221.71094,443.203125 L1258.625,358.242188 C1237.72656,347.304688 1218.48828,341.835938 1200.91016,341.835938 C1184.11328,341.835938 1170.00195,345.986328 1158.57617,354.287109 C1147.15039,362.587891 1136.06641,377.773438 1125.32422,399.84375 L1125.32422,399.84375 L1125.32422,348.867188 L1013.70312,348.867188 L1013.70312,660 L1133.52734,660 Z M1452.86328,667.03125 C1500.32422,667.03125 1536.75,660.244141 1562.14062,646.669922 C1587.53125,633.095703 1609.21094,610.683594 1627.17969,579.433594 L1627.17969,579.433594 L1509.69922,568.59375 C1502.27734,577.96875 1495.34375,584.511719 1488.89844,588.222656 C1478.35156,594.082031 1467.21875,597.011719 1455.5,597.011719 C1436.94531,597.011719 1421.90625,590.273438 1410.38281,576.796875 C1402.17969,567.421875 1397.00391,553.164062 1394.85547,534.023438 L1394.85547,534.023438 L1633.91797,534.023438 L1633.91797,520.546875 C1633.91797,479.53125 1627.17969,446.230469 1613.70312,420.644531 C1600.22656,395.058594 1580.59766,375.527344 1554.81641,362.050781 C1529.03516,348.574219 1493.87891,341.835938 1449.34766,341.835938 C1394.46484,341.835938 1351.44727,356.875 1320.29492,386.953125 C1289.14258,417.03125 1273.56641,456.386719 1273.56641,505.019531 C1273.56641,539.199219 1281.33008,568.935547 1296.85742,594.228516 C1312.38477,619.521484 1331.96484,637.978516 1355.59766,649.599609 C1379.23047,661.220703 1411.65234,667.03125 1452.86328,667.03125 Z M1512.62891,476.894531 L1395.14844,476.894531 C1397.10156,458.339844 1401.69141,444.375 1408.91797,435 C1420.24609,419.960938 1435.38281,412.441406 1454.32812,412.441406 C1470.73438,412.441406 1483.9668,417.421875 1494.02539,427.382812 C1504.08398,437.34375 1510.28516,453.847656 1512.62891,476.894531 L1512.62891,476.894531 Z M1812.33594,660 L1812.33594,230.507812 L1692.80469,230.507812 L1692.80469,660 L1812.33594,660 Z M2012.14062,311.660156 L2012.14062,230.507812 L1892.90234,230.507812 L1892.90234,311.660156 L2012.14062,311.660156 Z M2012.14062,660 L2012.14062,348.867188 L1892.90234,348.867188 L1892.90234,660 L2012.14062,660 Z M2187.04297,667.03125 C2214.97266,667.03125 2239.48438,662.734375 2260.57812,654.140625 C2276.00781,647.695312 2291.53516,636.953125 2307.16016,621.914062 C2308.52734,630.898438 2309.89453,637.490234 2311.26172,641.689453 C2312.62891,645.888672 2315.55859,651.992188 2320.05078,660 L2320.05078,660 L2431.96484,660 C2425.71484,647.109375 2421.66211,636.513672 2419.80664,628.212891 C2417.95117,619.912109 2417.02344,608.4375 2417.02344,593.789062 L2417.02344,593.789062 L2417.02344,456.386719 C2417.02344,441.738281 2414.09375,426.357422 2408.23438,410.244141 C2402.375,394.130859 2394.36719,381.679688 2384.21094,372.890625 C2369.75781,360.195312 2351.69141,351.845703 2330.01172,347.841797 C2308.33203,343.837891 2279.62109,341.835938 2243.87891,341.835938 C2221.61328,341.835938 2200.91016,343.496094 2181.76953,346.816406 C2162.62891,350.136719 2147.58984,354.824219 2136.65234,360.878906 C2121.41797,369.277344 2109.74805,379.189453 2101.64258,390.615234 C2093.53711,402.041016 2087.33594,417.714844 2083.03906,437.636719 L2083.03906,437.636719 L2197.00391,449.648438 C2201.69141,436.171875 2207.84375,426.992188 2215.46094,422.109375 C2225.22656,415.859375 2239.875,412.734375 2259.40625,412.734375 C2274.64062,412.734375 2285.28516,415.664062 2291.33984,421.523438 C2297.39453,427.382812 2300.42188,437.636719 2300.42188,452.285156 C2285.57812,458.144531 2271.51562,462.880859 2258.23438,466.494141 C2244.95312,470.107422 2215.94922,476.40625 2171.22266,485.390625 C2133.91797,492.8125 2108.33203,504.140625 2094.46484,519.375 C2080.59766,534.609375 2073.66406,554.042969 2073.66406,577.675781 C2073.66406,602.871094 2083.2832,624.0625 2102.52148,641.25 C2121.75977,658.4375 2149.93359,667.03125 2187.04297,667.03125 Z M2231.86719,600.820312 C2219.17188,600.820312 2209.55273,597.841797 2203.00977,591.884766 C2196.4668,585.927734 2193.19531,578.261719 2193.19531,568.886719 C2193.19531,560.683594 2196.51562,553.359375 2203.15625,546.914062 C2209.60156,540.664062 2224.93359,534.316406 2249.15234,527.871094 C2266.92578,523.378906 2284.01562,518.203125 2300.42188,512.34375 L2300.42188,512.34375 L2300.42188,531.386719 C2300.42188,546.230469 2298.0293,558.291016 2293.24414,567.568359 C2288.45898,576.845703 2280.35352,584.707031 2268.92773,591.152344 C2257.50195,597.597656 2245.14844,600.820312 2231.86719,600.820312 Z" id="path-1"></path>
    </defs>
    <g id="Page-1" stroke="none" stroke-width="1" fill="none" fill-rule="evenodd">
        <g id="GristLogo2" fill-rule="nonzero">
            <polygon id="Path-2" fill="#2E3E52" points="0 559.9619 551.42909 123 600 342.462312 137.652729 723"></polygon>
            <g id="Irelia">
                <use fill="#000000" xlink:href="#path-1"></use>
                <use fill="#2E3E52" xlink:href="#path-1"></use>
            </g>
        </g>
    </g>
</svg>