<?xml version="1.0" encoding="UTF-8"?>
<svg width="48px" height="48px" viewBox="0 0 48 48" version="1.1" xmlns="http://www.w3.org/2000/svg" xmlns:xlink="http://www.w3.org/1999/xlink">
    <title>Group</title>
    <g id="irelia" stroke="none" stroke-width="1" fill="none" fill-rule="evenodd" opacity="0.900000036">
        <g id="preview---favourite">
            <rect id="Rectangle" x="0" y="0" width="48" height="48"></rect>
            <g id="Group" transform="translate(1.000000, 1.000000)" fill-rule="nonzero">
                <polygon id="Path" fill="#0E512B" points="43 26 3 26 0 22 4 18 42 18 46 22"></polygon>
                <path d="M40,46 L6,46 C4.895,46 4,45.105 4,44 L4,2 C4,0.895 4.895,0 6,0 L30,0 L42,12 L42,44 C42,45.105 41.105,46 40,46 Z" id="Path" fill="#E6E6E6"></path>
                <path d="M30,0 L30,10 C30,11.105 30.895,12 32,12 L42,12 L30,0 Z" id="Path" fill="#B3B3B3"></path>
                <path d="M44,40 L2,40 C0.895,40 0,39.105 0,38 L0,22 L46,22 L46,38 C46,39.105 45.105,40 44,40 Z" id="Path" fill="#16B378"></path>
                <path d="M9.82226562,35 L9.82226562,33.5292969 L8.7265625,33.5292969 L8.7265625,35 L9.82226562,35 Z M12.6464844,28.0507812 L12.6464844,26.8496094 L11.6855469,26.8496094 L11.6855469,28.0507812 L12.6464844,28.0507812 Z M12.6523438,35 L12.6523438,29.4160156 L11.6914062,29.4160156 L11.6914062,35 L12.6523438,35 Z M15.8574219,35 L15.8574219,32.3339844 C15.8574219,31.7363281 16.0283203,31.2695312 16.3701172,30.9335938 C16.7119141,30.5976562 17.1875,30.4296875 17.796875,30.4296875 C17.8828125,30.4296875 17.9902344,30.4355469 18.1191406,30.4472656 L18.1191406,30.4472656 L18.1191406,29.2636719 L17.9960938,29.2636719 C17.2890625,29.2636719 16.6113281,29.7285156 15.9628906,30.6582031 C15.9394531,30.6894531 15.9042969,30.7382812 15.8574219,30.8046875 L15.8574219,30.8046875 L15.8574219,29.4160156 L14.8964844,29.4160156 L14.8964844,35 L15.8574219,35 Z M22.0097656,35.2460938 C22.5996094,35.2460938 23.1181641,35.1025391 23.5654297,34.8154297 C24.0126953,34.5283203 24.2988281,34.1523438 24.4238281,33.6875 L24.4238281,33.6875 L24.4414062,33.6347656 L23.4394531,33.6347656 L23.3984375,33.734375 C23.1835938,34.2539062 22.7128906,34.5136719 21.9863281,34.5136719 C20.8925781,34.5136719 20.3457031,33.8359375 20.3457031,32.4804688 L20.3457031,32.4804688 L20.3457031,32.3105469 L24.6113281,32.3105469 L24.6113281,32.1582031 C24.6113281,31.2285156 24.3818359,30.5058594 23.9228516,29.9902344 C23.4638672,29.4746094 22.8222656,29.2167969 21.9980469,29.2167969 C21.1582031,29.2167969 20.5029297,29.4882812 20.0322266,30.03125 C19.5615234,30.5742188 19.3261719,31.3300781 19.3261719,32.2988281 C19.3261719,33.2167969 19.5644531,33.9375 20.0410156,34.4609375 C20.5175781,34.984375 21.1738281,35.2460938 22.0097656,35.2460938 Z M23.5683594,31.6425781 L20.375,31.6425781 C20.5703125,30.4746094 21.1171875,29.890625 22.015625,29.890625 C22.984375,29.890625 23.4980469,30.4121094 23.5566406,31.4550781 L23.5566406,31.4550781 L23.5683594,31.6425781 Z M27.4414062,35 L27.4414062,26.3984375 L26.4804688,26.3984375 L26.4804688,35 L27.4414062,35 Z M30.6933594,28.0507812 L30.6933594,26.8496094 L29.7324219,26.8496094 L29.7324219,28.0507812 L30.6933594,28.0507812 Z M30.6992188,35 L30.6992188,29.4160156 L29.7382812,29.4160156 L29.7382812,35 L30.6992188,35 Z M34.3496094,35.1523438 C35.0527344,35.1523438 35.6621094,34.8828125 36.1777344,34.34375 C36.2167969,34.3046875 36.2753906,34.2441406 36.3535156,34.1621094 C36.3652344,34.2050781 36.3730469,34.2382812 36.3769531,34.2617188 C36.4433594,34.53125 36.5253906,34.7773438 36.6230469,35 L36.6230469,35 L37.4902344,35 C37.2988281,34.5664062 37.203125,34.1132812 37.203125,33.640625 L37.203125,33.640625 L37.203125,31.0039062 C37.203125,29.8164062 36.5019531,29.2226562 35.0996094,29.2226562 C33.7832031,29.2226562 33.0410156,29.7011719 32.8730469,30.6582031 L32.8730469,30.6582031 L32.8613281,30.7226562 L33.8632812,30.7226562 L33.8867188,30.6230469 C34.015625,30.1347656 34.421875,29.890625 35.1054688,29.890625 C35.9101562,29.890625 36.3125,30.3046875 36.3125,31.1328125 L36.3125,31.1328125 L36.3125,31.6425781 L35.4980469,31.6367188 C33.5644531,31.6367188 32.5976562,32.2636719 32.5976562,33.5175781 C32.5976562,34.0136719 32.7578125,34.4101562 33.078125,34.7070312 C33.3984375,35.0039062 33.8222656,35.1523438 34.3496094,35.1523438 Z M34.7480469,34.4140625 C33.9628906,34.4140625 33.5703125,34.0820312 33.5703125,33.4179688 C33.5703125,32.6171875 34.2539062,32.2167969 35.6210938,32.2167969 L35.6210938,32.2167969 L36.3125,32.2285156 L36.3066406,32.6972656 C36.3066406,33.8417969 35.7871094,34.4140625 34.7480469,34.4140625 Z" id=".irelia" fill="#FFFFFF"></path>
            </g>
        </g>
    </g>
</svg>