<?xml version="1.0" encoding="UTF-8"?>
<svg width="21px" height="20px" viewBox="0 0 21 20" version="1.1" xmlns="http://www.w3.org/2000/svg" xmlns:xlink="http://www.w3.org/1999/xlink">
    <title>Apps</title>
    <g id="icons" stroke="none" stroke-width="1" fill="none" fill-rule="evenodd">
        <g id="Apps" transform="translate(0.845575, 0.000000)" fill="#AAAEB8" fill-rule="nonzero">
            <path d="M6.94927033,9.23076923 L2.31642344,9.23076923 C1.03930198,9.23076923 0,8.19538462 0,6.92307692 L0,2.30769231 C0,1.03538462 1.03930198,0 2.31642344,0 L6.94927033,0 C8.22639178,0 9.26569377,1.03538462 9.26569377,2.30769231 L9.26569377,6.92307692 C9.26569377,8.19615385 8.22639178,9.23076923 6.94927033,9.23076923 Z M2.31642344,1.53846154 C1.89097367,1.53846154 1.54428229,1.88384615 1.54428229,2.30769231 L1.54428229,6.92307692 C1.54428229,7.34692308 1.89097367,7.69230769 2.31642344,7.69230769 L6.94927033,7.69230769 C7.3747201,7.69230769 7.72141147,7.34692308 7.72141147,6.92307692 L7.72141147,2.30769231 C7.72141147,1.88384615 7.3747201,1.53846154 6.94927033,1.53846154 L2.31642344,1.53846154 Z M6.94927033,20 L2.31642344,20 C1.03930198,20 0,18.9646154 0,17.6923077 L0,13.0769231 C0,11.8046154 1.03930198,10.7692308 2.31642344,10.7692308 L6.94927033,10.7692308 C8.22639178,10.7692308 9.26569377,11.8046154 9.26569377,13.0769231 L9.26569377,17.6923077 C9.26569377,18.9653846 8.22639178,20 6.94927033,20 Z M2.31642344,12.3076923 C1.89097367,12.3076923 1.54428229,12.6523077 1.54428229,13.0769231 L1.54428229,17.6923077 C1.54428229,18.1169231 1.89097367,18.4615385 2.31642344,18.4615385 L6.94927033,18.4615385 C7.3747201,18.4615385 7.72141147,18.1169231 7.72141147,17.6923077 L7.72141147,13.0769231 C7.72141147,12.6523077 7.3747201,12.3076923 6.94927033,12.3076923 L2.31642344,12.3076923 Z M17.6835766,9.23076923 L13.0507297,9.23076923 C11.7736082,9.23076923 10.7343062,8.19538462 10.7343062,6.92307692 L10.7343062,2.30769231 C10.7343062,1.03538462 11.7736082,0 13.0507297,0 L17.6835766,0 C18.960698,0 20,1.03538462 20,2.30769231 L20,6.92307692 C20,8.19615385 18.960698,9.23076923 17.6835766,9.23076923 Z M13.0507297,1.53846154 C12.6245078,1.53846154 12.2785885,1.88384615 12.2785885,2.30769231 L12.2785885,6.92307692 C12.2785885,7.34692308 12.6245078,7.69230769 13.0507297,7.69230769 L17.6835766,7.69230769 C18.1097985,7.69230769 18.4557177,7.34692308 18.4557177,6.92307692 L18.4557177,2.30769231 C18.4557177,1.88384615 18.1097985,1.53846154 17.6835766,1.53846154 L13.0507297,1.53846154 Z M17.6835766,20 L13.0507297,20 C11.7736082,20 10.7343062,18.9646154 10.7343062,17.6923077 L10.7343062,13.0769231 C10.7343062,11.8046154 11.7736082,10.7692308 13.0507297,10.7692308 L17.6835766,10.7692308 C18.960698,10.7692308 20,11.8046154 20,13.0769231 L20,17.6923077 C20,18.9653846 18.960698,20 17.6835766,20 Z M13.0507297,12.3076923 C12.6245078,12.3076923 12.2785885,12.6523077 12.2785885,13.0769231 L12.2785885,17.6923077 C12.2785885,18.1169231 12.6245078,18.4615385 13.0507297,18.4615385 L17.6835766,18.4615385 C18.1097985,18.4615385 18.4557177,18.1169231 18.4557177,17.6923077 L18.4557177,13.0769231 C18.4557177,12.6523077 18.1097985,12.3076923 17.6835766,12.3076923 L13.0507297,12.3076923 Z" id="Shape"></path>
        </g>
    </g>
</svg>