<?xml version="1.0" encoding="UTF-8"?>
<svg width="18px" height="21px" viewBox="0 0 18 21" version="1.1" xmlns="http://www.w3.org/2000/svg" xmlns:xlink="http://www.w3.org/1999/xlink">
    <title>Files</title>
    <g id="icons" stroke="none" stroke-width="1" fill="none" fill-rule="evenodd">
        <g id="Files" transform="translate(0.000000, 0.000000)" fill="#AAAEB8" fill-rule="nonzero">
            <path d="M10.9285714,7.875 L4.5,7.875 C4.11428571,7.875 3.85714286,8.1375 3.85714286,8.53125 C3.85714286,8.925 4.11428571,9.1875 4.5,9.1875 L10.9285714,9.1875 C11.3142857,9.1875 11.5714286,8.925 11.5714286,8.53125 C11.5714286,8.1375 11.3142857,7.875 10.9285714,7.875 Z M10.9285714,11.8125 L4.5,11.8125 C4.11428571,11.8125 3.85714286,12.075 3.85714286,12.46875 C3.85714286,12.8625 4.11428571,13.125 4.5,13.125 L10.9285714,13.125 C11.3142857,13.125 11.5714286,12.8625 11.5714286,12.46875 C11.5714286,12.075 11.3142857,11.8125 10.9285714,11.8125 Z" id="Shape"></path>
            <path d="M14.7857143,0 L4.5,0 C3.47142857,0 2.57142857,0.91875 2.57142857,1.96875 L2.57142857,2.625 L1.92857143,2.625 C0.9,2.625 0,3.54375 0,4.59375 L0,19.03125 C0,20.08125 0.9,21 1.92857143,21 L13.5,21 C14.5285714,21 15.4285714,20.08125 15.4285714,19.03125 L15.4285714,18.375 L16.0714286,18.375 C17.1,18.375 18,17.45625 18,16.40625 L18,3.28125 C18,1.44375 16.5857143,0 14.7857143,0 Z M14.1428571,19.03125 C14.1428571,19.425 13.8857143,19.6875 13.5,19.6875 L1.92857143,19.6875 C1.54285714,19.6875 1.28571429,19.425 1.28571429,19.03125 L1.28571429,4.59375 C1.28571429,4.2 1.54285714,3.9375 1.92857143,3.9375 L13.5,3.9375 C13.8857143,3.9375 14.1428571,4.2 14.1428571,4.59375 L14.1428571,19.03125 Z M16.7142857,16.40625 C16.7142857,16.8 16.4571429,17.0625 16.0714286,17.0625 L15.4285714,17.0625 L15.4285714,4.59375 C15.4285714,3.54375 14.5285714,2.625 13.5,2.625 L3.85714286,2.625 L3.85714286,1.96875 C3.85714286,1.575 4.11428571,1.3125 4.5,1.3125 L14.7857143,1.3125 C15.8142857,1.3125 16.7142857,2.23125 16.7142857,3.28125 L16.7142857,16.40625 Z" id="Shape"></path>
        </g>
    </g>
</svg>