<?xml version="1.0" encoding="UTF-8"?>
<svg width="20px" height="21px" viewBox="0 0 20 21" version="1.1" xmlns="http://www.w3.org/2000/svg" xmlns:xlink="http://www.w3.org/1999/xlink">
    <title>Help</title>
    <g id="icons" stroke="none" stroke-width="1" fill="none" fill-rule="evenodd">
        <g id="Help" transform="translate(0.000000, 0.312500)" fill="#AAAEB8" fill-rule="nonzero">
            <path d="M10,-7.8368684e-16 C15.5229412,-7.8368684e-16 20,4.47705882 20,10 C20,15.5229412 15.5229412,20 10,20 C4.47705882,20 -7.8368684e-16,15.5229412 -7.8368684e-16,10 C-7.8368684e-16,4.47705882 4.47705882,-7.8368684e-16 10,-7.8368684e-16 Z M10,1.76470588 C5.45176472,1.76470588 1.76470588,5.45176469 1.76470588,10 C1.76470588,14.5482353 5.45176469,18.2352941 10,18.2352941 C14.5482353,18.2352941 18.2352941,14.5482353 18.2352941,10 C18.2352941,5.45176469 14.5482353,1.76470588 10,1.76470588 Z M11.0935294,13.5294118 L11.0935294,15.2941176 L9.44058824,15.2941176 L9.44000001,13.5294118 L11.0935294,13.5294118 Z M10.9958823,4.79529413 C12.0635294,5.01058825 13.3335294,6.02882354 13.3335294,7.51 C13.3335294,8.99176472 12.1235294,9.55235293 11.69,9.82941176 C11.29,10.0852941 11.12,10.3776471 11.0964706,10.6894118 L11.0935294,10.7670588 L11.0935294,12.3529412 L9.44000001,12.3529412 L9.44000001,10.1652941 C9.44000001,9.6464706 9.60647059,9.28294119 10.0694118,8.96176472 L10.1735294,8.89294119 L11.1023529,8.27529413 C11.6947059,7.8764706 11.6864706,7.07588236 11.32,6.72235295 C10.9214619,6.37300647 10.3803964,6.23429972 9.86294117,6.34882353 C8.83235293,6.55117648 8.71352941,7.27823531 8.70647059,7.98411766 L8.70647059,8.38352941 L7.05882352,8.38352941 C7.05882352,7.00941176 7.21647057,6.38647058 7.94941177,5.59941176 C8.77058823,4.72 9.92764706,4.57882353 10.9958823,4.79529413 L10.9958823,4.79529413 Z" id="Shape"></path>
        </g>
    </g>
</svg>