<?xml version="1.0" encoding="UTF-8"?>
<svg width="21px" height="20px" viewBox="0 0 21 20" version="1.1" xmlns="http://www.w3.org/2000/svg" xmlns:xlink="http://www.w3.org/1999/xlink">
    <title>History</title>
    <g id="icons" stroke="none" stroke-width="1" fill="none" fill-rule="evenodd">
        <g id="History" transform="translate(0.833075, 0.000000)" fill="#AAAEB8" fill-rule="nonzero">
            <path d="M10,18.5714286 C14.7338095,18.5714286 18.5714286,14.7338095 18.5714286,10 C18.5714286,5.26619048 14.7338095,1.42857143 10,1.42857143 C5.26619048,1.42857143 1.42857143,5.26619048 1.42857143,10 C1.42857143,14.7338095 5.26619048,18.5714286 10,18.5714286 Z M10,20 C4.47714286,20 0,15.5228571 0,10 C0,4.47714286 4.47714286,0 10,0 C15.5228571,0 20,4.47714286 20,10 C20,15.5228571 15.5228571,20 10,20 Z M10.4761905,10.4761905 L10.4761905,5.71428571 C10.4761905,5.45129298 10.6893882,5.23809524 10.952381,5.23809524 L11.4285714,5.23809524 C11.6915642,5.23809524 11.9047619,5.45129298 11.9047619,5.71428571 L11.9047619,11.4285714 C11.9047619,11.6915642 11.6915642,11.9047619 11.4285714,11.9047619 L6.19047619,11.9047619 C5.92748345,11.9047619 5.71428571,11.6915642 5.71428571,11.4285714 L5.71428571,10.952381 C5.71428571,10.6893882 5.92748345,10.4761905 6.19047619,10.4761905 L10.4761905,10.4761905 Z" id="Shape"></path>
        </g>
    </g>
</svg>