<?xml version="1.0" encoding="UTF-8"?>
<svg width="21px" height="17px" viewBox="0 0 21 17" version="1.1" xmlns="http://www.w3.org/2000/svg" xmlns:xlink="http://www.w3.org/1999/xlink">
    <title>Monitor</title>
    <g id="icons" stroke="none" stroke-width="1" fill="none" fill-rule="evenodd">
        <g id="Monitor" transform="translate(0.000000, 0.979053)" fill="#AAAEB8" fill-rule="nonzero">
            <path d="M17.6249064,6.17409106 L14.6482968,12.0969646 C15.3087499,12.9861115 15.3039099,14.2850679 14.6368545,15.1678866 C13.969799,16.0507054 12.8361625,16.2584729 11.9567726,15.6590794 C11.0773827,15.0596858 10.7101474,13.8289217 11.0885749,12.7493736 L6.43420162,8.61348161 C6.00480018,8.99835108 5.44274351,9.13840624 4.91011013,8.99325982 L3.03025699,12.3338796 C3.32763942,13.1195609 3.09117207,14.0334256 2.46619916,14.5137685 C1.84122626,14.9941114 1.00297291,14.9062577 0.466669983,14.3042064 C-0.0696329415,13.7021552 -0.153620937,12.7547049 0.266329063,12.0442041 C0.686279063,11.3337034 1.4924247,11.059357 2.18927004,11.3897914 L3.93123923,8.29322973 C3.40538468,7.5533222 3.40487641,6.49943616 3.93001696,5.75888016 C4.45515752,5.01832416 5.3648006,4.79014345 6.11749595,5.21015888 C6.87019129,5.63017432 7.26363085,6.58549494 7.06362613,7.50748168 L11.7958881,11.7136148 C12.3386401,11.2584274 13.0424383,11.1280424 13.6852142,11.3635998 L16.5713045,5.6193053 C15.4438182,4.65605717 15.1405359,2.88584278 15.8682961,1.5159485 C16.5960563,0.146054224 18.1203214,-0.382039661 19.4015425,0.291826926 C20.6827635,0.965693514 21.3080373,2.6243514 20.8509269,4.13659575 C20.3938166,5.6488401 19.0016366,6.52731501 17.6238539,6.17290052 L17.6249064,6.17409106 Z" id="Path"></path>
        </g>
    </g>
</svg>