<?xml version="1.0" encoding="UTF-8"?>
<svg width="21px" height="17px" viewBox="0 0 21 17" version="1.1" xmlns="http://www.w3.org/2000/svg" xmlns:xlink="http://www.w3.org/1999/xlink">
    <title>Person</title>
    <g id="icons" stroke="none" stroke-width="1" fill="none" fill-rule="evenodd">
        <g id="Person" fill="#AAAEB8" fill-rule="nonzero">
            <path d="M12.8785558,10.6476435 C14.3468788,9.6722868 15.3956809,7.80285322 15.3956809,5.68958047 C15.3956809,2.51967135 13.2281565,1.77635684e-15 10.501271,1.77635684e-15 C7.77438554,1.77635684e-15 5.60686117,2.51967135 5.60686117,5.68958047 C5.60686117,7.80285322 6.58574314,9.6722868 8.12398624,10.6476435 C6.16622229,11.5417204 4.69789934,13.5737134 4.20845835,16.012105 C4.13853821,16.4185036 4.34829863,16.906182 4.76781948,16.9874617 L4.90765976,16.9874617 C5.25726046,16.9874617 5.53694103,16.7436225 5.60686117,16.3372239 C6.09630215,13.6549931 8.12398624,11.7042798 10.501271,11.7042798 C12.8785558,11.7042798 14.9062399,13.6549931 15.3956809,16.3372239 C15.465601,16.7436225 15.8152017,17.0687414 16.2347226,16.9874617 C16.5843233,16.906182 16.8640039,16.4997834 16.7940837,16.012105 C16.3046427,13.5737134 14.8363198,11.5417204 12.8785558,10.6476435 Z M7.00526399,5.68958047 C7.00526399,3.41374828 8.54350709,1.62559442 10.501271,1.62559442 C12.459035,1.62559442 13.9972781,3.41374828 13.9972781,5.68958047 C13.9972781,7.96541266 12.459035,9.75356652 10.501271,9.75356652 C8.54350709,9.75356652 7.00526399,7.96541266 7.00526399,5.68958047 Z M20.9892922,11.1353218 C20.7096116,9.50972736 19.8006498,8.20925182 18.402247,7.47773433 C19.1713685,6.66493712 19.5908894,5.52702103 19.5908894,4.22654549 C19.5908894,1.86943358 18.0526463,0 16.0948823,0 C15.6753615,0 15.3956809,0.325118884 15.3956809,0.81279721 C15.3956809,1.30047554 15.6753615,1.62559442 16.0948823,1.62559442 C17.2835247,1.62559442 18.1924865,2.76351051 18.1924865,4.22654549 C18.1924865,5.52702103 17.5632053,6.50237768 16.5843233,6.74621684 C16.2347226,6.82749657 15.955042,7.31517489 16.0948823,7.7215735 C16.0948823,8.1279721 16.3046427,8.45309099 16.6542434,8.45309099 C18.1924865,8.77820987 19.2412886,9.83484624 19.5209692,11.3791609 C19.5908894,11.7855595 19.8705699,12.0293987 20.2201706,12.0293987 L20.3600109,12.0293987 C20.7795317,12.0293987 21.0592123,11.6230001 20.9892922,11.1353218 L20.9892922,11.1353218 Z M4.83773962,7.80285322 C4.9775799,7.31517489 4.69789934,6.90877629 4.34829863,6.74621684 C3.4393368,6.50237768 2.81005553,5.52702103 2.81005553,4.22654549 C2.87997567,2.76351051 3.71901736,1.62559442 4.90765976,1.62559442 C5.3271806,1.62559442 5.60686117,1.30047554 5.60686117,0.81279721 C5.60686117,0.325118884 5.25726046,0 4.90765976,0 C2.94989581,0 1.48157285,1.78815386 1.48157285,4.22654549 C1.48157285,5.52702103 1.9010937,6.66493712 2.60029511,7.47773433 C1.27181243,8.20925182 0.292930457,9.50972736 0.0132498937,11.1353218 C-0.0566702472,11.5417204 0.153090176,12.0293987 0.572611021,12.1106784 L0.712451303,12.1106784 C1.06205201,12.1106784 1.34173257,11.8668393 1.41165271,11.4604407 C1.69133328,9.91612596 2.74013539,8.85948959 4.27837849,8.53437071 C4.62797919,8.53437071 4.83773962,8.20925182 4.83773962,7.80285322 L4.83773962,7.80285322 Z" id="Shape"></path>
        </g>
    </g>
</svg>