<?xml version="1.0" encoding="UTF-8"?>
<svg width="21px" height="18px" viewBox="0 0 21 18" version="1.1" xmlns="http://www.w3.org/2000/svg" xmlns:xlink="http://www.w3.org/1999/xlink">
    <title>Project</title>
    <g id="icons" stroke="none" stroke-width="1" fill="none" fill-rule="evenodd">
        <g id="Project" fill="#AAAEB8" fill-rule="nonzero">
            <path d="M16.2121687,9.29197947 L9.17441663,9.29197947 C8.59927852,9.29197947 8.1348819,8.84776597 8.1348819,8.29765224 C8.1348819,7.74769866 8.59927852,7.3034394 9.17441663,7.3034394 L16.2121687,7.3034394 C16.7872589,7.3034394 17.2516556,7.74767579 17.2516556,8.29765224 C17.2516556,8.84778884 16.7828102,9.29197947 16.2121687,9.29197947 L16.2121687,9.29197947 L16.2121687,9.29197947 Z M16.2121687,13.2270564 L9.17441663,13.2270564 C8.59927852,13.2270564 8.1348819,12.7827972 8.1348819,12.2327521 C8.1348819,11.6827756 8.59927852,11.2384477 9.17441663,11.2384477 L16.2121687,11.2384477 C16.7872589,11.2384477 17.2516556,11.6827756 17.2516556,12.2327521 C17.2516556,12.7827972 16.7828102,13.2270564 16.2121687,13.2270564 L16.2121687,13.2270564 L16.2121687,13.2270564 Z M20.9895271,16.4765388 L20.9895271,3.90163829 C20.9895271,2.37419536 19.5341736,2.51814096 19.5341736,2.51814096 C19.5341736,2.51814096 10.8464693,2.52651414 11.3109138,2.51814096 C10.8154713,2.52651414 10.5632773,2.26838667 10.5632773,2.26838667 C10.5632773,2.26838667 10.2182806,1.69729422 9.59458845,0.80024237 C8.94432313,-0.143205168 8.18793258,0.00906784582 8.18793258,0.00906784582 L1.79154825,0.00906784582 C0.0176994871,0.00906784582 0,1.64227371 0,1.64227371 L0,16.3960784 C0,18.2153932 1.43758216,17.9912389 1.43758216,17.9912389 L19.6669199,17.9912389 C21.2063459,17.9912389 20.9895271,16.4765388 20.9895271,16.4765388 L20.9895271,16.4765388 L20.9895271,16.4765388 L20.9895271,16.4765388 Z M19.6847151,15.7318514 C19.6847151,16.2945936 19.211373,16.7473404 18.6229842,16.7473404 L2.36659067,16.7473404 C1.77820187,16.7473404 1.30497938,16.2945935 1.30497938,15.7318514 L1.30497938,5.20485828 C1.30497938,4.64204751 1.77820187,4.18941506 2.36659069,4.18941506 L18.6230081,4.18941506 C19.2113969,4.18941506 19.6847151,4.64204751 19.6847151,5.20485828 L19.6847151,15.7318514 L19.6847151,15.7318514 Z M4.20241159,8.29767511 C4.20241159,8.8842099 4.69945662,9.35981142 5.31262474,9.35981142 C5.92581677,9.35981142 6.42295747,8.8842099 6.42295747,8.29767511 C6.42295747,7.71130047 5.92581677,7.23576758 5.31262474,7.23576758 C4.69943271,7.23576758 4.20241159,7.7111632 4.20241159,8.29767511 L4.20241159,8.29767511 L4.20241159,8.29767511 Z M4.20241159,12.2327521 C4.20241159,12.8192868 4.69945662,13.294774 5.31262474,13.294774 C5.92581677,13.294774 6.42295747,12.8192868 6.42295747,12.2327521 C6.42295747,11.6461715 5.92581677,11.1708445 5.31262474,11.1708445 C4.69943271,11.1708445 4.20241159,11.6461944 4.20241159,12.2327521 L4.20241159,12.2327521 L4.20241159,12.2327521 Z" id="Shape"></path>
        </g>
    </g>
</svg>