<?xml version="1.0" encoding="UTF-8"?>
<svg width="21px" height="20px" viewBox="0 0 21 20" version="1.1" xmlns="http://www.w3.org/2000/svg" xmlns:xlink="http://www.w3.org/1999/xlink">
    <title>Search</title>
    <g id="icons" stroke="none" stroke-width="1" fill="none" fill-rule="evenodd">
        <g id="Search" fill="#AAAEB8" fill-rule="nonzero">
            <path d="M20.8502438,18.2891633 L16.1844542,13.8393613 C16.0333179,13.6918223 15.865041,13.5611933 15.6828818,13.4500037 L14.5164344,12.6824128 C16.9157281,9.85107146 16.9380098,5.81220618 14.5700881,2.95694348 C12.2021664,0.101680785 8.07600338,-0.807953472 4.63440827,0.766570817 C1.19281315,2.34109511 -0.645705036,5.97956154 0.20731029,9.52789148 C1.06032562,13.0762214 4.37721773,15.58742 8.19428942,15.5747841 C10.0466622,15.5752981 11.8441676,14.9750985 13.2916646,13.8727349 L14.1665002,14.9851854 C14.2702672,15.1284529 14.3873875,15.2624913 14.5164344,15.3856675 L19.1822241,19.8354695 C19.291734,19.94077 19.4408036,20 19.5963129,20 C19.7518222,20 19.9008918,19.94077 20.0104017,19.8354695 L20.8269149,19.0567542 C21.0483431,18.8478735 21.0586141,18.5099252 20.8502438,18.2891633 L20.8502438,18.2891633 Z M8.19428942,13.3498831 C4.97323383,13.3498831 2.36205236,10.8595779 2.36205236,7.78763069 C2.36205236,4.71568349 4.97323383,2.22537825 8.19428942,2.22537825 C11.415345,2.22537825 14.0265265,4.71568349 14.0265265,7.78763069 C14.0265265,10.8595779 11.415345,13.3498831 8.19428942,13.3498831 L8.19428942,13.3498831 Z" id="Shape"></path>
        </g>
    </g>
</svg>