<?xml version="1.0" encoding="UTF-8"?>
<svg width="21px" height="19px" viewBox="0 0 21 19" version="1.1" xmlns="http://www.w3.org/2000/svg" xmlns:xlink="http://www.w3.org/1999/xlink">
    <title>Settting</title>
    <g id="icons" stroke="none" stroke-width="1" fill="none" fill-rule="evenodd">
        <g id="Settting" transform="translate(10.843194, 9.078842) scale(-1, 1) translate(-10.843194, -9.078842) translate(0.843194, 0.078842)" fill="#AAAEB8" fill-rule="nonzero">
            <path d="M9.08279359,1.40288836 C7.48830863,-0.0319841268 5.06215609,-0.406849714 3.02719501,0.467235931 L6.57399019,3.65922716 L4.06601807,5.91631408 L0.519222891,2.72432285 C-0.452100971,4.55570521 -0.0355551178,6.73919988 1.55888615,8.17414109 C3.15332742,9.60908229 5.57952718,9.98395894 7.6144758,9.10980155 L17.2326639,17.7663321 C17.578926,18.0778893 18.1402493,18.0778893 18.4865114,17.7663321 L19.7403589,16.6379133 C20.086547,16.3262896 20.086547,15.8211183 19.7403589,15.5094946 L10.1224479,6.85271463 C11.0936921,5.02132105 10.6771585,2.83786888 9.08279359,1.40288836 Z" id="Path"></path>
        </g>
    </g>
</svg>